<svg width="26" height="41" viewBox="0 0 26 41" fill="none" xmlns="http://www.w3.org/2000/svg">
<path d="M22.6012 40.1016C22.6012 40.1016 12.8632 41.0062 3.61749 40.0317C3.7099 39.7074 3.82094 39.3888 3.95007 39.0772C3.9667 39.0307 3.98665 38.9808 4.00994 38.9309C4.09308 38.7247 4.19952 38.4919 4.31925 38.2425C4.38909 38.0928 4.47223 37.9398 4.5587 37.7802L4.63519 37.6338C4.66179 37.5873 4.68507 37.5474 4.715 37.5008C4.7311 37.4633 4.75119 37.4276 4.77489 37.3944C4.85471 37.2514 4.94782 37.1084 5.04095 36.962C5.20724 36.6993 5.39348 36.4366 5.59968 36.1705C5.67617 36.0707 5.756 35.9743 5.83582 35.8745C5.91564 35.7747 5.96885 35.7149 6.03869 35.6384C6.15842 35.4987 6.28811 35.359 6.42447 35.2226C6.61774 35.0241 6.82087 34.8354 7.0331 34.6572C7.1229 34.5841 7.2127 34.5076 7.30915 34.4344L7.44883 34.328C7.50204 34.2848 7.55858 34.2449 7.61512 34.2049L7.96765 33.9555C8.58699 33.5617 9.25877 33.2572 9.96313 33.0509C10.3983 32.9241 10.8433 32.834 11.2935 32.7815C11.6489 32.7397 12.0065 32.7186 12.3644 32.7183L13.545 32.7881C13.8747 32.7331 14.2085 32.7064 14.5428 32.7083C15.2518 32.704 15.9581 32.798 16.6414 32.9877C17.5799 33.249 18.4541 33.702 19.2089 34.318C19.3352 34.4211 19.4616 34.5275 19.5847 34.6506C19.6445 34.7038 19.7077 34.7637 19.7643 34.8235L19.8108 34.8668L19.9272 34.9865L20.1301 35.2127C20.2332 35.3324 20.3363 35.4588 20.4361 35.5885C20.5359 35.7182 20.609 35.818 20.6955 35.941C20.782 36.0641 20.8152 36.114 20.8718 36.2038C20.9283 36.2936 20.9616 36.3434 21.0048 36.4199C21.1157 36.5995 21.2265 36.7891 21.3374 36.9886C21.4305 37.1716 21.5236 37.3611 21.6101 37.5607C21.64 37.6205 21.6633 37.6771 21.6899 37.7369L21.7731 37.9631L21.9294 38.3688L22.0824 38.7679L22.1555 38.9608L22.2719 39.2668L22.6012 40.1016Z" fill="#AB0048"/>
<path d="M14.985 34.3147C13.6547 35.4289 10.8577 34.3147 10.8577 34.3147C11.0843 33.8338 11.2314 33.3194 11.2934 32.7915C11.3033 32.7432 11.31 32.6943 11.3134 32.6452C11.3647 32.2293 11.3847 31.8102 11.3732 31.3913C11.3732 31.1353 11.3732 30.8825 11.3333 30.643C11.2719 29.8867 11.1473 29.1369 10.9608 28.4014L14.5327 28.2917C14.3223 29.0521 14.2391 29.8421 14.2866 30.6297C14.2866 30.9922 14.3365 31.3514 14.3798 31.6907C14.423 32.0299 14.4695 32.2893 14.5261 32.562L14.556 32.705C14.6651 33.2501 14.8084 33.7877 14.985 34.3147V34.3147Z" fill="#CD8B6D"/>
<path d="M20.4495 35.5885C19.9806 35.7514 19.4052 35.951 18.7866 36.1472C18.3609 36.2902 17.9186 36.4332 17.4995 36.5629C16.7912 36.8065 16.0636 36.99 15.3245 37.1117C15.1416 37.1117 14.2702 37.1616 13.4288 37.2015L12.5508 37.2347L11.6528 37.2747C10.5897 37.25 9.52905 37.1611 8.47665 37.0086C8.40349 37.0086 8.32698 36.9886 8.25714 36.9753C7.33068 36.8616 6.43068 36.5893 5.5965 36.1705C5.67299 36.0707 5.75282 35.9743 5.83264 35.8745C5.91246 35.7747 5.96566 35.7149 6.03551 35.6384C6.15523 35.4987 6.28493 35.359 6.42129 35.2226C6.61455 35.0241 6.81769 34.8354 7.02992 34.6572C7.11971 34.5841 7.20952 34.5076 7.30596 34.4344L7.44564 34.328C7.49886 34.2848 7.55539 34.2449 7.61193 34.2049L7.9678 33.9555C8.58714 33.5617 9.25891 33.2572 9.96328 33.0509C10.3984 32.9241 10.8434 32.834 11.2936 32.7815C11.649 32.7397 12.0066 32.7186 12.3645 32.7183L13.5452 32.7881C13.8749 32.7331 14.2087 32.7064 14.5429 32.7083C15.252 32.704 15.9582 32.798 16.6415 32.9877C17.5801 33.249 18.4543 33.702 19.209 34.318C19.3354 34.4211 19.4618 34.5275 19.5848 34.6506C19.6447 34.7038 19.7079 34.7637 19.7644 34.8235L19.811 34.8668L19.9274 34.9865L20.1303 35.2127C20.2467 35.3324 20.3498 35.4588 20.4495 35.5885Z" fill="#CD8B6D"/>
<path d="M12.5638 37.2348L11.6659 37.2747C10.6028 37.25 9.54211 37.1612 8.48972 37.0086C8.41655 37.0086 8.34004 36.9887 8.2702 36.9754C8.43525 36.5515 8.72463 36.1874 9.10035 35.931C9.47607 35.6746 9.92056 35.5378 10.3754 35.5386C10.8769 35.5378 11.3643 35.7041 11.7606 36.0113C12.1569 36.3185 12.4396 36.749 12.5638 37.2348V37.2348Z" fill="#E8A287"/>
<path d="M17.5129 36.563C16.8045 36.8065 16.0769 36.9901 15.3378 37.1117C15.1549 37.1117 14.2835 37.1616 13.4421 37.2015C13.5726 36.7239 13.8566 36.3023 14.2502 36.0019C14.6438 35.7014 15.1253 35.5386 15.6205 35.5386C15.9962 35.5385 16.3661 35.632 16.6965 35.8109C17.027 35.9898 17.3076 36.2483 17.5129 36.563V36.563Z" fill="#E8A287"/>
<path d="M21.2708 18.6568C21.4308 18.4454 21.6477 18.284 21.896 18.1912C22.1282 18.0983 22.3687 18.0281 22.6144 17.9817C23.0966 17.8853 23.6853 17.8786 24.0279 18.3143C24.2472 18.6492 24.3629 19.0414 24.3604 19.4417C24.4336 21.0814 23.0534 21.9893 21.6366 22.3784C21.3672 22.4516 20.9016 22.711 20.7021 22.4017C20.3728 21.8396 20.8684 19.2488 21.2708 18.6568Z" fill="#CD8B6D"/>
<path d="M21.2709 19.9006C21.2709 19.9006 23.0103 18.291 23.2431 19.1823C23.369 19.7997 23.3206 20.4399 23.1034 21.0314C23.1034 21.0314 23.1333 19.8807 22.1655 20.2931C22.1655 20.2931 22.4981 22.232 21.0381 21.3307C20.8914 21.1063 20.834 20.8351 20.8771 20.5705C20.9201 20.3059 21.0606 20.067 21.2709 19.9006V19.9006Z" fill="#B66C50"/>
<path d="M4.6584 18.6568C4.49839 18.4454 4.28152 18.2839 4.03314 18.1912C3.7996 18.1015 3.55791 18.0347 3.31145 17.9917C2.82921 17.8952 2.24054 17.8886 1.89798 18.3242C1.67865 18.6592 1.56297 19.0513 1.5654 19.4517C1.49223 21.0913 2.87577 21.9992 4.28924 22.3884C4.55863 22.4615 5.02424 22.7209 5.22379 22.4116C5.55969 21.8396 5.06747 19.2488 4.6584 18.6568Z" fill="#CD8B6D"/>
<path d="M4.66529 19.9006C4.66529 19.9006 2.92922 18.291 2.69309 19.1823C2.56754 19.7999 2.61707 20.4404 2.8361 21.0314C2.8361 21.0314 2.80617 19.8807 3.77065 20.2931C3.77065 20.2931 3.43807 22.232 4.8981 21.3307C5.04551 21.1065 5.10338 20.8352 5.06027 20.5703C5.01716 20.3055 4.8762 20.0665 4.66529 19.9006V19.9006Z" fill="#B66C50"/>
<path d="M21.7666 17.2899C21.7334 17.6225 21.6902 17.9285 21.6502 18.2511C21.3967 20.2983 21.0258 22.3293 20.5394 24.334C19.5816 28.1055 14.9155 29.9612 13.2526 29.8315C4.68531 28.6808 4.23964 22.8008 4.29951 22.1622C4.40261 21.1645 4.22635 20.077 4.16316 19.0759C4.12657 18.5471 4.05008 18.0017 3.97358 17.4562C3.8069 16.5423 3.77554 15.6089 3.88047 14.6858C3.885 14.6421 3.89278 14.5987 3.90376 14.5561C4.07176 13.6298 4.33937 12.7244 4.70194 11.8556C5.78947 9.19493 7.98783 6.24826 11.1274 6.2017C11.8753 6.19574 12.6195 6.30798 13.3324 6.53428C14.3669 6.8616 15.3575 7.31392 16.2824 7.88124C18.2579 9.07852 20.2301 10.4355 21.2179 12.6105C21.9097 14.1437 21.9363 15.6869 21.7666 17.2899Z" fill="#FFC29C"/>
<path d="M25.4719 12.6005C25.4995 13.037 25.4806 13.4752 25.4154 13.9076C25.4068 14.3136 25.2921 14.7103 25.0828 15.0583C24.9143 15.4615 24.6467 15.8155 24.3048 16.0876C23.9629 16.3597 23.5579 16.541 23.1272 16.6148C22.9194 16.7136 22.6822 16.7314 22.462 16.6647C21.6938 16.6314 21.3446 16.2423 21.2747 15.7401C21.0686 15.4771 20.884 15.1979 20.7226 14.9053C20.3901 15.5904 19.7681 16.0295 18.9134 15.6137C18.3214 15.3244 17.7494 14.5362 17.4101 13.7346C17.347 14.7025 16.8348 15.8 16.0798 15.9962C14.8027 16.3288 14.4901 14.483 14.6231 13.5717C14.3271 14.8821 11.9991 17.6491 10.9282 15.6902C10.3528 14.6393 11.2341 13.1526 11.8827 12.3644C11.9392 12.2979 12.0024 12.2181 12.0755 12.1216C12.2439 11.9006 12.4238 11.6886 12.6143 11.4864C12.477 11.4963 12.3392 11.4963 12.2019 11.4864C11.9691 11.4664 11.733 11.4299 11.4935 11.39C10.4193 11.2203 10.5823 11.5795 10.1898 12.5407C9.79737 13.5018 8.87945 14.922 7.67884 14.2402C7.36183 14.0304 7.13604 13.7084 7.04693 13.3389C6.81745 14.5262 6.23876 15.7401 5.38403 16.362C5.29913 16.427 5.20903 16.4848 5.11464 16.535L5.06476 16.6381C4.5027 17.7755 3.25885 18.6336 1.98506 18.1779C0.185803 17.5128 -0.279818 14.9752 0.791091 13.5916C0.84851 13.5198 0.909558 13.451 0.974006 13.3854L0.904177 13.3455C-0.0935642 12.8234 -0.143464 11.5895 0.39199 10.5984C0.671358 10.0829 1.61257 8.96544 2.42074 8.99538C2.44402 7.50541 3.0859 5.49331 4.68561 6.11856C4.7222 6.06534 4.7488 6.0088 4.78538 5.95559C4.19339 5.06095 4.68229 4.01665 5.52039 3.34484C5.63329 3.2528 5.75217 3.16835 5.87626 3.09207L5.91617 3.06879C7.35624 2.19743 8.90938 2.12426 10.1266 2.6963C10.4156 2.18822 10.8095 1.7475 11.282 1.40344C11.7545 1.05937 12.2948 0.819853 12.8671 0.700818C14.1209 0.414799 15.2583 0.700818 15.7872 1.99456C15.9254 2.36688 16.0127 2.75621 16.0466 3.15194C16.459 1.95465 17.8824 1.62539 19.1961 2.13757C20.5098 2.64974 21.0319 3.75058 20.9987 5.05762C21.4374 5.13518 21.8636 5.27166 22.2658 5.46337C22.4033 5.52989 22.5396 5.60306 22.6749 5.68288C22.8146 5.76602 22.9542 5.85249 23.0939 5.94894C24.3079 6.78704 25.3389 8.12402 25.5417 9.54746C25.6291 10.0602 25.5375 10.5875 25.2823 11.0407C25.259 11.084 25.2357 11.1206 25.2125 11.1571C25.2808 11.3752 25.3353 11.5974 25.3754 11.8223C25.4253 12.0792 25.4576 12.3392 25.4719 12.6005V12.6005Z" fill="#4A1D1D"/>
<path d="M2.82934 13.2491C2.19439 13.5527 1.48577 13.6681 0.787292 13.5817C0.844711 13.5099 0.90578 13.441 0.970228 13.3755L0.900379 13.3356C1.35188 13.4028 1.8132 13.3405 2.2307 13.156C3.00561 12.8566 3.89361 12.381 4.31599 11.6261C4.55544 11.207 5.02771 10.0463 4.1896 9.86341C3.85966 9.78284 3.5136 9.79784 3.19186 9.90665C2.8207 10.0037 2.48783 10.2114 2.23736 10.502C1.9911 10.742 1.8339 11.0587 1.79169 11.3999L2.44023 11.8822C2.45989 11.8779 2.48043 11.8806 2.4983 11.8899C2.51618 11.8991 2.53025 11.9143 2.53813 11.9328C2.54601 11.9513 2.54719 11.972 2.54146 11.9913C2.53573 12.0106 2.52346 12.0273 2.50675 12.0385C2.2041 12.2646 1.74514 12.3478 1.58882 11.8822C1.32608 11.084 1.7418 10.645 2.31052 10.1195C2.87923 9.59403 4.306 9.24814 4.82815 10.043C5.63965 11.3035 3.79715 12.8566 2.82934 13.2491Z" fill="#703838"/>
<path d="M7.75811 8.13066C5.89566 7.39898 5.19724 5.25051 5.51319 3.34483C5.62609 3.25279 5.74497 3.16835 5.86906 3.09206L5.90897 3.06879C5.7871 3.54658 5.73447 4.03939 5.75266 4.53214C5.79922 5.61303 6.12846 6.92339 7.14948 7.50541C7.70981 7.83009 8.36534 7.95053 9.00448 7.84623C9.64361 7.74193 10.2269 7.41934 10.6549 6.93337C10.8301 4.82259 10.2469 4.21619 8.90552 5.11415C8.83055 5.15998 8.76578 5.22071 8.71523 5.29259C8.66469 5.36446 8.62944 5.44595 8.61167 5.53201C8.5939 5.61806 8.59397 5.70684 8.61191 5.79286C8.62985 5.87888 8.66526 5.9603 8.71595 6.03207C8.75123 6.04134 8.78138 6.06424 8.79978 6.09573C8.81818 6.12723 8.82331 6.16475 8.81405 6.20003C8.80479 6.23531 8.78189 6.26547 8.75039 6.28387C8.7189 6.30227 8.68138 6.3074 8.6461 6.29814C7.40225 6.11189 9.34785 3.50446 10.7979 4.5787C13.0062 6.215 9.65715 8.87897 7.75811 8.13066Z" fill="#703838"/>
<path d="M23.0868 5.93569C23.0052 6.66883 22.797 7.38226 22.4715 8.04425C21.3042 10.1395 17.8154 10.9477 15.8199 9.41115C13.8245 7.87463 15.8199 4.03 17.8553 5.61974C18.5205 6.14522 18.597 7.76488 17.8121 8.22717C17.2168 8.57638 16.7645 8.16065 16.8975 7.56201C16.9119 7.52611 16.9379 7.49607 16.9713 7.47668C17.0048 7.45729 17.0437 7.44966 17.082 7.45502C17.1203 7.46038 17.1557 7.47842 17.1826 7.50625C17.2094 7.53408 17.2261 7.57011 17.2301 7.60857C18.2544 6.01883 17.8221 5.56764 15.933 6.25497C15.6479 6.5346 15.4592 6.89766 15.394 7.29164C15.3288 7.68563 15.3906 8.09013 15.5705 8.44667C15.7716 8.72572 16.0275 8.96079 16.3226 9.13749C16.6177 9.3142 16.9457 9.42882 17.2866 9.47434C18.1879 9.63398 19.3486 9.77034 20.23 9.44441C21.8563 8.83579 22.558 7.30592 22.6545 5.65965C22.8075 5.75277 22.9338 5.83924 23.0868 5.93569Z" fill="#703838"/>
<path d="M25.3684 11.809C25.24 11.6563 25.0871 11.5259 24.9161 11.4232C24.5831 11.2132 24.2065 11.0821 23.8151 11.04C23.4237 10.9979 23.0279 11.046 22.6579 11.1804C21.8996 11.4698 21.1779 12.1549 21.1979 13.0329C21.1828 13.2396 21.2255 13.4464 21.3212 13.6303C21.417 13.8141 21.5619 13.9677 21.7399 14.0739C21.9811 14.2078 22.2523 14.2787 22.5282 14.2801C22.9716 14.2934 23.0259 14.0339 22.6911 13.5018C22.6627 13.5302 22.6257 13.5484 22.5858 13.5536C22.546 13.5588 22.5055 13.5508 22.4707 13.5307C22.4359 13.5107 22.4086 13.4797 22.3932 13.4426C22.3777 13.4055 22.3749 13.3644 22.3851 13.3255C22.7377 12.2114 24.5303 13.7712 23.3264 14.5361C22.1224 15.3011 20.5959 14.2568 20.7256 12.8732C20.8786 11.2769 22.5115 10.4388 23.9649 10.5818C24.4286 10.6409 24.8749 10.7961 25.2753 11.0374C25.252 11.0806 25.2287 11.1172 25.2054 11.1538C25.2734 11.3686 25.3278 11.5874 25.3684 11.809V11.809Z" fill="#703838"/>
<path d="M13.7779 12.9231C13.7382 12.8845 13.7126 12.8337 13.7054 12.7788C13.6981 12.7238 13.7096 12.6681 13.738 12.6205L13.8411 12.4708C13.8629 12.4361 13.8953 12.4093 13.9334 12.3943C13.9715 12.3792 14.0135 12.3767 14.0531 12.387C14.0928 12.3974 14.1281 12.4202 14.154 12.452C14.1798 12.4838 14.1949 12.523 14.197 12.564C14.197 13.0096 16.9341 12.4675 15.5805 11.3667C15.3205 11.1491 14.9916 11.0312 14.6526 11.0341C14.0621 11.0348 13.4804 11.1773 12.9564 11.4498C12.6339 11.6355 12.3404 11.8675 12.0851 12.1382C12.2535 11.9172 12.4333 11.7052 12.6239 11.503C12.4866 11.513 12.3488 11.513 12.2115 11.503C12.4696 11.2707 12.7654 11.0841 13.0862 10.9509C13.8777 10.6184 15.2379 10.2558 15.9131 11.0507C17.0372 12.3544 14.7058 14.0938 13.7779 12.9231Z" fill="#703838"/>
<path d="M5.38018 16.3621C5.30009 15.9861 5.13374 15.6338 4.89422 15.3331C4.65469 15.0324 4.34856 14.7915 3.99998 14.6293C2.83928 14.0041 1.8881 14.8788 1.78168 16.0129C1.71516 16.7578 2.52665 17.5793 3.06876 16.7379C3.08331 16.7127 3.09098 16.6841 3.09103 16.655C3.09107 16.6259 3.08348 16.5973 3.069 16.572C3.05453 16.5468 3.03367 16.5258 3.00853 16.5111C2.98339 16.4964 2.95486 16.4886 2.92575 16.4884C2.29718 16.4884 2.2872 16.1559 2.44351 15.6237C2.85591 14.2269 4.69175 15.6237 4.9811 16.3587C5.01838 16.4485 5.04517 16.5422 5.06091 16.6381L5.38018 16.3621Z" fill="#703838"/>
<g opacity="0.4">
<path opacity="0.4" d="M19.3322 22.1057C19.3322 22.6012 18.6671 23.0036 17.8389 23.0036C17.0108 23.0036 16.3456 22.6012 16.3456 22.1057C16.3456 21.6101 17.0108 21.2077 17.8389 21.2077C18.6671 21.2077 19.3322 21.6101 19.3322 22.1057Z" fill="#DB5D7B"/>
<path opacity="0.4" d="M9.32512 22.4282C9.32512 22.9238 8.65996 23.3262 7.83183 23.3262C7.00371 23.3262 6.34186 22.9238 6.34186 22.4282C6.34186 21.9327 7.00703 21.5303 7.83183 21.5303C8.65663 21.5303 9.32512 21.9327 9.32512 22.4282Z" fill="#DB5D7B"/>
</g>
<path d="M6.34156 17.2334C6.62071 16.8921 6.97811 16.6231 7.38341 16.4494C7.7887 16.2757 8.22993 16.2024 8.66962 16.2357C9.04516 16.2444 9.41301 16.3438 9.74178 16.5255C10.0705 16.7073 10.3505 16.9658 10.5576 17.2792C10.7648 17.5926 10.893 17.9514 10.9314 18.3251C10.9699 18.6987 10.9173 19.0762 10.7782 19.4251C10.7416 19.5182 10.572 19.5182 10.5853 19.3985C10.6177 19.1242 10.5927 18.8461 10.5121 18.5819C10.4314 18.3177 10.2968 18.0732 10.1167 17.8637C9.93665 17.6543 9.71505 17.4845 9.46595 17.3651C9.21686 17.2457 8.94569 17.1793 8.66962 17.1702C8.40199 17.1647 8.13598 17.2131 7.88743 17.3125C7.63889 17.4119 7.4129 17.5603 7.2229 17.7489C6.84376 18.1247 6.93355 18.6834 6.67414 19.1091C6.64986 19.1495 6.61681 19.1838 6.57741 19.2096C6.53801 19.2354 6.49331 19.2519 6.44662 19.258C6.39994 19.264 6.35248 19.2595 6.3078 19.2447C6.26312 19.2298 6.22237 19.2051 6.18858 19.1723C5.63982 18.6136 5.8826 17.7888 6.34156 17.2334Z" fill="#390A0A"/>
<path d="M6.59088 18.893C6.59306 19.1708 6.64993 19.4454 6.75825 19.7012C6.86656 19.957 7.0242 20.1889 7.22216 20.3838C7.42012 20.5787 7.65452 20.7327 7.91199 20.8369C8.16946 20.9412 8.44496 20.9938 8.72273 20.9916C9.28404 20.996 9.82415 20.7775 10.2245 20.384C10.6248 19.9906 10.8526 19.4543 10.8579 18.893C10.8557 18.6148 10.7988 18.3397 10.6903 18.0835C10.5818 17.8273 10.4239 17.595 10.2257 17.3998C10.0274 17.2046 9.79261 17.0504 9.53474 16.946C9.27687 16.8415 9.00095 16.7889 8.72273 16.7911C8.16143 16.7875 7.62166 17.0069 7.22196 17.401C6.82226 17.7951 6.59528 18.3317 6.59088 18.893Z" fill="white"/>
<path d="M10.1296 18.9695C10.1296 19.914 9.53432 20.6789 8.79932 20.6789C8.06431 20.6789 7.46899 19.914 7.46899 18.9695C7.46899 18.0249 8.06431 17.26 8.79932 17.26C9.53432 17.26 10.1296 18.0249 10.1296 18.9695Z" fill="#80422B"/>
<path d="M9.96335 18.9695C9.96335 19.7876 9.44454 20.4495 8.80931 20.4495C8.17408 20.4495 7.65192 19.7843 7.65192 18.9695C7.65192 18.1547 8.17076 17.4895 8.80931 17.4895C9.44786 17.4895 9.96335 18.1513 9.96335 18.9695Z" fill="#390A0A"/>
<path d="M9.80378 17.8187C9.80378 18.0016 9.58759 18.1513 9.31487 18.1513C9.04216 18.1513 8.82599 18.0016 8.82599 17.8187C8.82599 17.6358 9.04548 17.4861 9.31487 17.4861C9.58426 17.4861 9.80378 17.6358 9.80378 17.8187Z" fill="white"/>
<path d="M19.4348 17.1136C19.1554 16.7725 18.798 16.5037 18.3927 16.3301C17.9875 16.1564 17.5464 16.0829 17.1067 16.1159C16.7307 16.1244 16.3625 16.2239 16.0333 16.4058C15.7042 16.5877 15.424 16.8466 15.2168 17.1604C15.0095 17.4742 14.8814 17.8335 14.8433 18.2077C14.8052 18.5818 14.8584 18.9596 14.9981 19.3087C15.0347 19.4018 15.2043 19.4018 15.191 19.2821C15.1586 19.0077 15.1836 18.7297 15.2642 18.4655C15.3449 18.2013 15.4795 17.9568 15.6596 17.7473C15.8397 17.5378 16.0613 17.368 16.3104 17.2487C16.5595 17.1293 16.8306 17.0629 17.1067 17.0538C17.3741 17.0478 17.64 17.0957 17.8885 17.1945C18.137 17.2934 18.3632 17.4412 18.5534 17.6291C18.9326 18.005 18.8428 18.567 19.1022 18.9927C19.1264 19.0331 19.1595 19.0674 19.1989 19.0932C19.2383 19.1189 19.283 19.1355 19.3297 19.1416C19.3764 19.1476 19.4239 19.1431 19.4685 19.1283C19.5132 19.1134 19.554 19.0887 19.5878 19.0559C20.1232 18.4905 19.8937 17.6591 19.4348 17.1136Z" fill="#390A0A"/>
<path d="M14.7657 18.893C14.7679 19.1707 14.8248 19.4454 14.9331 19.7012C15.0414 19.957 15.199 20.1889 15.397 20.3838C15.595 20.5787 15.8294 20.7326 16.0869 20.8369C16.3443 20.9412 16.6198 20.9937 16.8976 20.9916C17.1754 20.9937 17.4509 20.9412 17.7083 20.8369C17.9658 20.7326 18.2002 20.5787 18.3981 20.3838C18.5961 20.1889 18.7538 19.957 18.8621 19.7012C18.9704 19.4454 19.0273 19.1707 19.0294 18.893C19.025 18.3317 18.7981 17.7951 18.3984 17.401C17.9986 17.0069 17.4589 16.7875 16.8976 16.7911C16.3363 16.7875 15.7965 17.0069 15.3968 17.401C14.9971 17.7951 14.7701 18.3317 14.7657 18.893Z" fill="white"/>
<path d="M18.2012 18.9695C18.2012 19.914 17.6025 20.6789 16.8708 20.6789C16.1392 20.6789 15.5405 19.914 15.5405 18.9695C15.5405 18.0249 16.1358 17.26 16.8708 17.26C17.6059 17.26 18.2012 18.0249 18.2012 18.9695Z" fill="#80422B"/>
<path d="M18.0219 18.9695C18.0219 19.7876 17.5064 20.4495 16.8679 20.4495C16.2293 20.4495 15.7138 19.7843 15.7138 18.9695C15.7138 18.1547 16.2293 17.4895 16.8679 17.4895C17.5064 17.4895 18.0219 18.1513 18.0219 18.9695Z" fill="#390A0A"/>
<path d="M17.8754 17.8187C17.8754 18.0016 17.6559 18.1513 17.3865 18.1513C17.1171 18.1513 16.8976 18.0016 16.8976 17.8187C16.8976 17.6358 17.1171 17.4861 17.3865 17.4861C17.6559 17.4861 17.8754 17.6358 17.8754 17.8187Z" fill="white"/>
<path d="M16.0859 25.2685C15.5737 24.6599 14.1536 23.1866 13.2989 24.058C13.0428 24.3207 12.9663 24.1943 12.6836 24.0846C12.5067 24.0102 12.316 23.9738 12.1241 23.9778C11.9322 23.9818 11.7432 24.0261 11.5695 24.1078C11.1671 24.3107 10.9742 24.7098 10.6482 24.9958C10.4587 25.1563 10.3047 25.3546 10.1959 25.5778C10.1738 25.5807 10.1529 25.5897 10.1356 25.6038C10.1183 25.6179 10.1053 25.6365 10.0981 25.6576C10.0908 25.6787 10.0896 25.7014 10.0945 25.7232C10.0995 25.7449 10.1104 25.7648 10.1261 25.7807C11.044 26.6887 11.9253 27.4935 13.2823 27.3838C15.178 27.2274 15.9429 25.5147 15.9828 25.5147C16.011 25.5139 16.0384 25.505 16.0616 25.4891C16.0849 25.4732 16.103 25.4509 16.1139 25.4249C16.1248 25.3989 16.1279 25.3703 16.123 25.3426C16.118 25.3149 16.1051 25.2892 16.0859 25.2685V25.2685Z" fill="#AB0048"/>
<path d="M11.2634 25.2885C11.2634 25.2885 13.4418 25.2885 14.6923 25.2087C15.2544 25.1721 12.6736 26.7019 11.2634 25.2885Z" fill="white"/>
<path d="M6.30518 16.2124C6.30518 16.2124 8.12106 13.7912 11.2673 16.2124C11.2639 16.2124 9.9303 15.2446 6.30518 16.2124Z" fill="#390A0A"/>
<path d="M14.8556 16.2124C14.8556 16.2124 16.6681 13.7912 19.8177 16.2124C19.8177 16.2124 18.484 15.2446 14.8556 16.2124Z" fill="#390A0A"/>
<path d="M14.2869 20.6722C14.1586 20.5705 14.0017 20.5116 13.8382 20.5039C13.6747 20.4961 13.5129 20.5399 13.3756 20.629C13.4003 20.3163 13.3369 20.0029 13.1927 19.7244C12.8867 19.2555 12.4444 19.8075 12.3213 20.1102C12.2359 20.328 12.1973 20.5615 12.2082 20.7953C11.8191 20.5891 11.3934 20.5625 11.2105 21.0015C10.9212 21.6667 12.2082 22.8606 12.8435 22.6278C13.4787 22.395 15.1582 21.5636 14.2869 20.6722Z" fill="#CD8B6D"/>
<path d="M4.01322 21.5636L3.97332 21.5237C3.80037 21.3441 3.53099 21.6168 3.70393 21.793C4.52195 22.6648 5.08057 23.7475 5.31695 24.9193C5.57315 26.1091 5.626 27.3337 5.47326 28.5411C5.42265 28.8749 5.34138 29.2033 5.23048 29.5222C5.06752 30.0078 4.21278 32.0365 3.52434 31.0089C3.34185 30.7728 3.19194 30.5133 3.07867 30.2373C2.94835 29.7946 2.86258 29.34 2.8226 28.8803C2.76157 28.3782 2.73046 27.8729 2.72947 27.3671C2.76274 25.8962 3.01725 24.4387 3.48443 23.0436C3.52102 22.9272 3.34474 22.8839 3.30483 22.997C2.52659 25.0856 2.09091 27.1609 2.49999 29.3892C2.60309 29.9379 3.23166 32.5554 4.41233 31.6906C5.80916 30.6663 5.88898 28.6741 5.90561 27.0844C5.92889 25.0623 5.45995 23.0436 4.01322 21.5636Z" fill="#7FADC4"/>
<path d="M4.72498 21.8196C4.72498 21.9908 4.657 22.1549 4.536 22.2759C4.415 22.3969 4.2509 22.4648 4.07978 22.4648C3.99505 22.4648 3.91114 22.4482 3.83286 22.4157C3.75458 22.3833 3.68347 22.3358 3.62355 22.2759C3.56364 22.216 3.51612 22.1448 3.48369 22.0666C3.45127 21.9883 3.43457 21.9044 3.43457 21.8196C3.43457 21.7349 3.45127 21.651 3.48369 21.5727C3.51612 21.4945 3.56364 21.4233 3.62355 21.3634C3.68347 21.3035 3.75458 21.256 3.83286 21.2235C3.91114 21.1911 3.99505 21.1744 4.07978 21.1744C4.2509 21.1744 4.415 21.2424 4.536 21.3634C4.657 21.4844 4.72498 21.6485 4.72498 21.8196V21.8196Z" fill="white"/>
<path d="M21.3439 21.8064L21.3838 21.7631C21.5567 21.5869 21.8261 21.8596 21.6565 22.0358C20.8369 22.9057 20.2771 23.9874 20.0402 25.1588C19.785 26.3499 19.7333 27.5756 19.8872 28.7839C19.9371 29.1175 20.0172 29.4459 20.1266 29.765C20.2896 30.2506 21.1477 32.2793 21.8328 31.2516C22.0153 31.0144 22.1652 30.7538 22.2784 30.4767C22.4088 30.0352 22.4945 29.5817 22.5345 29.1231C22.5964 28.6211 22.6287 28.1158 22.631 27.6099C22.5949 26.139 22.3393 24.6817 21.8727 23.2863C21.8394 23.1699 22.0124 23.1267 22.0523 23.2365C22.8305 25.3284 23.2662 27.4037 22.8571 29.632C22.754 30.1807 22.1254 32.7982 20.9448 31.9334C19.5479 30.9091 19.4715 28.9169 19.4515 27.3272C19.4282 25.3084 19.8971 23.283 21.3439 21.8064Z" fill="#7FADC4"/>
<path d="M21.9163 21.8995C21.9163 21.9859 21.899 22.0715 21.8653 22.1511C21.8316 22.2307 21.7823 22.3027 21.7203 22.3629C21.6583 22.4231 21.5847 22.4702 21.5042 22.5014C21.4236 22.5326 21.3375 22.5474 21.2511 22.5447C21.1664 22.5447 21.0825 22.528 21.0042 22.4956C20.9259 22.4632 20.8548 22.4156 20.7949 22.3557C20.735 22.2958 20.6874 22.2247 20.655 22.1464C20.6226 22.0681 20.6059 21.9842 20.6059 21.8995C20.6059 21.8148 20.6226 21.7309 20.655 21.6526C20.6874 21.5743 20.735 21.5032 20.7949 21.4433C20.8548 21.3833 20.9259 21.3358 21.0042 21.3034C21.0825 21.271 21.1664 21.2543 21.2511 21.2543C21.3375 21.2516 21.4236 21.2663 21.5042 21.2975C21.5847 21.3288 21.6583 21.3759 21.7203 21.436C21.7823 21.4962 21.8316 21.5683 21.8653 21.6479C21.899 21.7275 21.9163 21.813 21.9163 21.8995Z" fill="white"/>
</svg>
