<svg width="39" height="40" viewBox="0 0 39 40" fill="none" xmlns="http://www.w3.org/2000/svg">
<path d="M38.8464 42.1751H0.15033C0.22075 41.4901 0.569652 39.1086 2.31096 36.0645C4.37876 32.4443 13.5974 32.9596 13.9079 32.4443C14.0424 32.2202 14.1192 31.3079 14.164 30.3508C14.2184 29.1089 14.2184 27.7901 14.2184 27.7901L19.5 29.3458L24.7815 27.7901C24.7815 27.7901 24.7815 29.0993 24.8327 30.3508C24.8807 31.3111 24.9544 32.2362 25.092 32.4635C25.4121 32.9788 34.618 32.4635 36.689 36.0837C38.4271 39.1086 38.7792 41.4901 38.8464 42.1751Z" fill="#CD8B6D"/>
<path d="M38.8464 42.1751H0.15033C0.22075 41.4901 0.569652 39.1086 2.31096 36.0645C4.05227 33.0204 10.9215 32.8956 13.1941 32.6267C13.6071 32.5755 13.8663 32.5243 13.9143 32.4443C13.9143 32.4443 19.4039 39.5888 25.0984 32.4443C25.1496 32.5339 25.4761 32.5915 25.9883 32.6491C28.4082 32.9052 34.9861 33.0781 36.6954 36.0645C38.4271 39.1086 38.7792 41.4901 38.8464 42.1751Z" fill="#006986"/>
<path d="M25.982 32.6491C21.5007 38.8814 16.1551 35.466 13.1782 32.6267C13.5911 32.5755 13.8504 32.5243 13.8984 32.4443C13.8984 32.4443 19.388 39.5888 25.0825 32.4443C25.1433 32.5339 25.4698 32.5915 25.982 32.6491Z" fill="#6EBCCE"/>
<path d="M10.4604 17.0029C10.4604 17.0029 8.0117 12.8673 7.0002 16.4108C5.98871 19.9542 8.43422 21.6443 10.0379 21.3082C11.6416 20.9721 10.4604 17.0029 10.4604 17.0029Z" fill="#CD8B6D"/>
<path d="M10.1757 17.6784C10.1757 17.6784 8.48885 15.06 7.89668 16.1163C7.53626 16.8631 7.39106 17.6955 7.47736 18.5202C7.47736 18.5202 7.81345 17.0446 8.91137 17.88C8.91137 17.88 7.85506 20.2423 10.0093 19.5669C9.99649 19.5765 10.8832 18.8595 10.1757 17.6784Z" fill="#B66C50"/>
<path d="M28.037 17.0029C28.037 17.0029 30.4857 12.8673 31.4972 16.4108C32.5087 19.9542 30.0632 21.6443 28.4595 21.3082C26.8558 20.9721 28.037 17.0029 28.037 17.0029Z" fill="#CD8B6D"/>
<path d="M28.072 17.9536C28.072 17.9536 29.7589 15.3353 30.3511 16.3916C30.7117 17.1384 30.8579 17.9705 30.7736 18.7955C30.7736 18.7955 30.4343 17.3199 29.3364 18.1553C29.3364 18.1553 30.3927 20.5176 28.2385 19.8422C28.2385 19.8518 27.355 19.1348 28.072 17.9536Z" fill="#B66C50"/>
<path d="M28.1009 23.7537C27.9152 26.7946 24.4486 29.0449 22.1824 30.05C20.884 30.6554 19.4268 30.8325 18.0212 30.5557C9.45546 28.0366 9.69873 22.2333 10.0828 20.604C10.467 18.9747 9.94199 15.8026 10.9471 12.0383C11.0765 11.5512 11.2692 11.0831 11.5201 10.6459C13.0533 7.96992 16.3215 7.10887 16.3215 7.10887C21.9839 3.45021 25.9467 7.04486 27.2526 9.98971C27.3394 10.182 27.4164 10.3786 27.4831 10.5787C28.4722 13.61 28.2929 20.3415 28.1009 23.7537Z" fill="#E8B299"/>
<path d="M10.2844 8.21002C10.1788 8.53012 9.83629 14.8231 10.1628 17.6784L13.1813 9.76248L10.2844 8.21002Z" fill="#92561A"/>
<path d="M26.6443 8.83098C26.6443 8.83098 23.485 10.1113 18.085 11.3085C17.5345 11.4301 16.9647 11.5518 16.3661 11.6702C15.5531 11.8324 14.6995 11.9903 13.8054 12.1439C10.2555 12.7425 8.63905 11.7022 7.93164 10.3642C7.87498 10.2602 7.8237 10.1534 7.778 10.0441C7.11541 8.44367 7.59234 6.56471 7.59234 6.56471C7.778 6.95843 8.18772 6.99684 8.77669 6.78878C8.88571 6.75091 8.99256 6.7071 9.09679 6.65754C11.219 5.72287 15.1466 2.45152 19.1829 1.07832C19.6843 0.901902 20.2137 0.818382 20.745 0.831848C20.9966 0.840747 21.2466 0.876148 21.4908 0.937474C22.2844 1.15399 23.0032 1.58477 23.5682 2.18263C23.6546 2.27226 23.7411 2.36189 23.8243 2.45471C24.3373 3.04824 24.7749 3.70301 25.1271 4.40408C25.2295 4.59934 25.3255 4.79781 25.4183 4.99306C25.991 6.21406 26.4031 7.5041 26.6443 8.83098Z" fill="#A16929"/>
<path d="M23.8308 2.4419C23.053 3.32216 22.2624 4.18641 21.3981 5.00265C19.007 7.27531 16.2382 9.24709 13.0117 10.1241C11.4112 10.5531 9.54185 10.8219 7.93178 10.3642C7.87511 10.2602 7.82384 10.1534 7.77814 10.0441C7.91578 10.0857 8.05342 10.1177 8.20387 10.1497C11.0847 10.7387 14.2856 9.69201 16.7664 8.22919C19.3672 6.6235 21.6706 4.57998 23.5747 2.18903C23.6612 2.25945 23.7476 2.34908 23.8308 2.4419Z" fill="#C98643"/>
<path d="M21.4975 0.924668C20.0379 3.32857 18.1205 5.44759 15.8991 6.82079C14.0937 7.93472 12.0579 8.35084 10.0253 7.66904C9.52396 7.51345 9.08615 7.20025 8.77698 6.77597C8.88599 6.7381 8.99285 6.69429 9.09707 6.64473C9.28616 6.85346 9.51602 7.02123 9.77246 7.13768C10.8467 7.61812 12.0495 7.73064 13.1943 7.45778C15.1404 6.98724 16.8337 5.68446 18.1909 4.25684C19.1704 3.21263 20.0294 2.0616 20.7517 0.825439C21.0031 0.832241 21.2531 0.8655 21.4975 0.924668Z" fill="#C98643"/>
<path d="M25.425 4.98024C24.0183 6.62621 22.4506 8.12744 20.7453 9.46154C19.8998 10.1335 19.0113 10.7494 18.0853 11.3053C17.5347 11.4269 16.965 11.5485 16.3664 11.667C18.1355 10.8636 19.7685 9.78902 21.2062 8.48206C22.6275 7.22952 23.9412 5.86006 25.1337 4.38806C25.2362 4.58652 25.3322 4.78498 25.425 4.98024Z" fill="#C98643"/>
<path d="M29.1797 11.6542C29.1541 11.8911 29.1284 12.1279 29.0996 12.3584C28.9368 13.6498 28.7071 14.9319 28.4114 16.1995C28.3634 16.414 28.3186 16.5868 28.2898 16.7117C28.2546 16.8589 28.2322 16.9389 28.2322 16.9389L28.1714 16.5356C28.1714 16.5164 28.1714 16.5004 28.1714 16.4812C28.0401 15.4729 27.5312 14.1701 26.9102 12.8449C25.7939 10.5883 24.5277 8.40894 23.1203 6.32143C22.6882 4.72097 23.8341 4.00715 24.7656 3.68706C24.922 3.63279 25.0812 3.58684 25.2425 3.54942C25.4374 3.50155 25.6352 3.46626 25.8347 3.44379C26.0017 3.44549 26.1684 3.45726 26.334 3.479C26.51 3.50625 26.6835 3.548 26.8526 3.60383C29.3173 4.43288 29.5126 8.29321 29.1797 11.6542Z" fill="#92561A"/>
<path d="M28.4209 16.2059C28.3729 16.4204 28.3281 16.5932 28.2993 16.7181C28.2577 16.6412 28.2129 16.5676 28.1745 16.4908C27.6 15.4416 27.1909 14.3101 26.9613 13.1362L26.9133 12.8545C26.3883 9.62799 26.3916 6.35023 24.7687 3.69666C24.9251 3.64238 25.0843 3.59644 25.2456 3.55902C25.4208 3.85049 25.579 4.15189 25.7193 4.46169C26.2988 5.90734 26.6695 7.42809 26.8205 8.9782C27.0797 11.1324 27.1086 13.4147 28.008 15.4249C28.1329 15.6842 28.2641 15.9466 28.4209 16.2059Z" fill="#B56E2D"/>
<path d="M29.1797 11.6542C29.1541 11.8911 29.1285 12.128 29.0997 12.3584C27.6849 10.1178 26.9487 6.20304 26.3277 3.48865C26.5037 3.51589 26.6771 3.55764 26.8462 3.61348C27.2752 5.21395 27.4864 6.93286 27.9506 8.4437C28.2377 9.55688 28.65 10.6339 29.1797 11.6542Z" fill="#B56E2D"/>
<path d="M13.86 14.0997C12.8997 14.6887 12.3267 16.1323 12.8997 17.0638C12.9253 17.1118 13.0245 17.0926 13.0181 17.0382C12.9727 16.6072 13.0251 16.1716 13.1714 15.7637C13.3177 15.3558 13.5542 14.9862 13.8632 14.6823C14.2759 14.3061 14.8123 14.0942 15.3708 14.0869C16.011 14.0453 16.2927 14.6183 16.7952 14.8135C16.8977 14.8552 17.0289 14.7879 16.9937 14.6823C16.5968 13.4852 14.8427 13.5044 13.86 14.0997Z" fill="#390A0A"/>
<path d="M17.2497 16.7885C17.2497 18.3409 16.2894 19.6021 15.1179 19.6021C13.9463 19.6021 12.9893 18.3409 12.9893 16.7885C12.9893 15.236 13.9495 13.9749 15.1179 13.9749C16.2862 13.9749 17.2497 15.236 17.2497 16.7885Z" fill="white"/>
<path d="M16.7984 16.8718C16.7984 18.0273 16.0718 18.9652 15.1755 18.9652C14.2793 18.9652 13.5527 18.0273 13.5527 16.8718C13.5527 15.7162 14.2793 14.7751 15.1755 14.7751C16.0718 14.7751 16.7984 15.7226 16.7984 16.8718Z" fill="#3D79CA"/>
<path d="M16.539 16.9038C16.539 17.864 15.9437 18.6707 15.2106 18.6707C14.4776 18.6707 13.8823 17.88 13.8823 16.9038C13.8823 15.9275 14.4776 15.1368 15.2106 15.1368C15.9437 15.1368 16.539 15.9307 16.539 16.9038Z" fill="#390A0A"/>
<path d="M16.7983 15.3833C16.7983 15.5753 16.4206 15.729 15.9564 15.729C15.4923 15.729 15.1178 15.5753 15.1178 15.3833C15.1178 15.1912 15.4955 15.0344 15.9564 15.0344C16.4174 15.0344 16.7983 15.188 16.7983 15.3833Z" fill="white"/>
<path d="M24.6792 14.0997C25.6394 14.6887 26.2124 16.1323 25.6394 17.0638C25.6138 17.1118 25.5146 17.0926 25.521 17.0382C25.5664 16.6072 25.514 16.1716 25.3677 15.7637C25.2214 15.3558 24.9849 14.9862 24.676 14.6823C24.2643 14.3063 23.729 14.0944 23.1715 14.0869C22.5313 14.0453 22.2465 14.6183 21.7439 14.8135C21.6415 14.8552 21.5102 14.7879 21.5455 14.6823C21.9424 13.4852 23.6965 13.5044 24.6792 14.0997Z" fill="#390A0A"/>
<path d="M25.3961 16.7885C25.3961 18.3409 24.4358 19.6021 23.2675 19.6021C22.0991 19.6021 21.1389 18.3409 21.1389 16.7885C21.1389 15.236 22.0991 13.9749 23.2675 13.9749C24.4358 13.9749 25.3961 15.236 25.3961 16.7885Z" fill="white"/>
<path d="M24.9447 16.8718C24.9447 18.0273 24.2181 18.9652 23.3218 18.9652C22.4255 18.9652 21.6989 18.0369 21.6989 16.8718C21.6989 15.7066 22.4255 14.7751 23.3186 14.7751C24.2116 14.7751 24.9447 15.7226 24.9447 16.8718Z" fill="#3D79CA"/>
<path d="M24.6887 16.9038C24.6887 17.864 24.0933 18.6707 23.3571 18.6707C22.6208 18.6707 22.0287 17.88 22.0287 16.9038C22.0287 15.9275 22.624 15.1368 23.3571 15.1368C24.0901 15.1368 24.6887 15.9307 24.6887 16.9038Z" fill="#390A0A"/>
<path d="M24.9449 15.3833C24.9449 15.5753 24.5704 15.729 24.1062 15.729C23.6421 15.729 23.2676 15.5753 23.2676 15.3833C23.2676 15.1912 23.6421 15.0344 24.1062 15.0344C24.5704 15.0344 24.9449 15.188 24.9449 15.3833Z" fill="white"/>
<path d="M19.2086 15.4313C19.2086 15.4313 18.5684 14.7911 18.4531 17.0702C18.3379 19.3492 18.4531 21.7307 18.4531 21.7307C18.4531 21.7307 16.9423 20.8473 17.4449 22.1084C17.7169 22.787 18.3571 23.1359 19.0453 23.3152C19.2953 23.3874 19.5608 23.3867 19.8103 23.3129C20.0599 23.2392 20.2831 23.0956 20.4537 22.8991C20.633 22.723 21.5676 21.7755 21.2732 21.481C21.1323 21.337 20.3129 21.6763 20.1048 21.7307C20.0984 21.7307 20.3417 14.9287 19.2086 15.4313Z" fill="#CD8B6D"/>
<path d="M22.9793 24.6596C22.9793 24.6596 20.0121 29.7459 15.9149 24.8517C15.9149 24.8517 18.3028 24.045 19.1766 24.762L19.4967 25.1237C19.4967 25.1237 20.4186 23.9874 22.9793 24.6596Z" fill="#B66C50"/>
<path d="M22.9793 24.6596C22.9793 24.6596 20.0121 29.7459 15.9149 24.8517C15.9373 24.8517 19.9416 26.689 22.9793 24.6596Z" fill="#CD8B6D"/>
<path d="M17.9476 12.8194C17.9476 13.6484 16.5072 13.1811 14.7466 13.1811C12.9861 13.1811 11.5457 13.6484 11.5457 12.8194C11.5457 11.9903 12.9829 10.1786 14.7466 10.1786C16.5104 10.1786 17.9476 11.9903 17.9476 12.8194Z" fill="#6D3A12"/>
<path d="M26.6445 12.8194C26.6445 13.6484 25.2073 13.1811 23.4435 13.1811C21.6798 13.1811 20.2426 13.6484 20.2426 12.8194C20.2426 11.9903 21.6798 10.1786 23.4435 10.1786C25.2073 10.1786 26.6445 11.9903 26.6445 12.8194Z" fill="#6D3A12"/>
</svg>
