<svg width="22" height="22" viewBox="0 0 22 22" fill="none" xmlns="http://www.w3.org/2000/svg">
<path d="M19.2643 0H13.0533C11.971 0 10.5226 0.599563 9.75739 1.36475L0.798728 10.3242C-0.266243 11.39 -0.266243 13.1233 0.798728 14.1891L7.80881 21.1992C8.32474 21.7151 9.01125 22 9.74083 22C10.4704 22 11.1569 21.7143 11.6728 21.1984L20.6323 12.2397C21.3975 11.4753 21.9971 10.0261 21.9971 8.94376V2.73282C21.9971 1.22563 20.7715 0 19.2643 0ZM20.6721 8.94376C20.6721 9.67997 20.215 10.7822 19.6941 11.3023L10.7354 20.2609C10.2046 20.7934 9.27708 20.7934 8.74542 20.2609L1.73534 13.2508C1.18629 12.7026 1.18629 11.8099 1.73534 11.2609L10.6948 2.30219C11.2149 1.7813 12.3171 1.325 13.0533 1.325H19.2643C20.0411 1.325 20.6721 1.95603 20.6721 2.73282V8.94376Z" fill="#3A4276"/>
<path d="M16.3659 2.89844C14.8587 2.89844 13.6331 4.12406 13.6331 5.63125C13.6331 7.13844 14.8579 8.36407 16.3659 8.36407C17.8739 8.36407 19.0987 7.13844 19.0987 5.63125C19.0987 4.12406 17.8731 2.89844 16.3659 2.89844ZM16.3659 7.03907C15.5891 7.03907 14.9581 6.40721 14.9581 5.63125C14.9581 4.8553 15.5899 4.22344 16.3659 4.22344C17.1418 4.22344 17.7737 4.8553 17.7737 5.63125C17.7737 6.40721 17.1427 7.03907 16.3659 7.03907Z" fill="#3A4276"/>
</svg>
