<svg width="18" height="13" viewBox="0 0 18 13" fill="none" xmlns="http://www.w3.org/2000/svg">
<path d="M17.2122 7.24304C16.6873 6.59973 16.0214 6.18586 15.2153 6.00128C15.4717 5.61344 15.5996 5.18874 15.5996 4.72717C15.5996 4.07468 15.3652 3.51768 14.8966 3.05599C14.4279 2.59445 13.8623 2.36359 13.1998 2.36359C12.5998 2.36359 12.081 2.55442 11.6437 2.93607C11.2751 2.06203 10.6889 1.35417 9.88597 0.812504C9.0828 0.270964 8.18742 0 7.1999 0C5.87499 0 4.74369 0.461761 3.80618 1.38506C2.86861 2.30813 2.39997 3.42235 2.39997 4.72727C2.39997 4.81963 2.40624 4.95186 2.41872 5.12422C1.69376 5.45663 1.10934 5.95979 0.665623 6.63398C0.22194 7.30778 0 8.05118 0 8.86368C0 10.0024 0.411011 10.9765 1.2328 11.7858C2.05463 12.5953 3.04372 13 4.19995 13H14.4001C15.3937 13 16.242 12.6535 16.9453 11.9613C17.6484 11.2688 18 10.4333 18 9.45454C17.9999 8.62363 17.7373 7.88616 17.2122 7.24304Z" fill="#FFAC30"/>
</svg>
