<svg width="15" height="15" viewBox="0 0 15 15" fill="none" xmlns="http://www.w3.org/2000/svg">
<path fill-rule="evenodd" clip-rule="evenodd" d="M1.70711 0.292894C1.31658 -0.0976312 0.683417 -0.0976312 0.292893 0.292894C-0.0976311 0.683418 -0.0976311 1.31658 0.292893 1.70711L6.08579 7.5L0.292893 13.2929C-0.0976311 13.6834 -0.0976311 14.3166 0.292893 14.7071C0.683417 15.0976 1.31658 15.0976 1.70711 14.7071L7.5 8.91421L13.2929 14.7071C13.6834 15.0976 14.3166 15.0976 14.7071 14.7071C15.0976 14.3166 15.0976 13.6834 14.7071 13.2929L8.91421 7.5L14.7071 1.70711C15.0976 1.31658 15.0976 0.683418 14.7071 0.292893C14.3166 -0.0976309 13.6834 -0.0976309 13.2929 0.292893L7.5 6.08579L1.70711 0.292894Z" fill="#3A4276"/>
</svg>
