<svg width="14" height="24" viewBox="0 0 14 24" fill="none" xmlns="http://www.w3.org/2000/svg">
<path d="M13.8899 2.83463L9.09459 0.91043L3.13941 11.8801L5.62439 12.8772C5.67334 12.8999 5.71568 12.9363 5.74874 12.9843C5.78181 13.0322 5.80489 13.0906 5.81653 13.1558C5.82817 13.221 5.82813 13.2916 5.8164 13.3631C5.80467 13.4346 5.78152 13.5056 5.74838 13.5715L0.738443 23.4175L11.0556 13.6341L8.63402 12.6624C8.58245 12.6401 8.53804 12.6024 8.50393 12.5521C8.46982 12.5018 8.44683 12.44 8.43659 12.3711C8.42636 12.3022 8.42913 12.2279 8.4447 12.1535C8.46028 12.079 8.48828 12.0062 8.52673 11.9403L13.8899 2.83463Z" fill="#3A4276"/>
</svg>
