<svg width="23" height="22" viewBox="0 0 23 22" fill="none" xmlns="http://www.w3.org/2000/svg">
<path d="M4.67117 18.2739C4.7314 18.2738 4.79062 18.2893 4.84308 18.3189C4.89555 18.3485 4.93946 18.3911 4.97056 18.4427L7.11557 22L7.20835 21.9072C7.47522 21.6403 7.43457 21.4007 7.3083 20.8364C7.29778 20.7898 7.28726 20.742 7.27674 20.6929L6.42352 16.7827C6.41017 16.7214 6.41356 16.6577 6.43333 16.5982C6.45311 16.5387 6.48854 16.4856 6.53591 16.4445L13.3837 10.5122C13.4191 10.4814 13.4604 10.4582 13.5051 10.4437C13.5497 10.4293 13.5968 10.424 13.6436 10.4282C13.6903 10.4324 13.7357 10.446 13.7771 10.4682C13.8185 10.4903 13.855 10.5206 13.8844 10.5571L20.7154 19.0472C20.8149 18.9516 20.933 18.8296 21.054 18.6952C21.5146 18.1854 21.3328 17.7205 20.8785 16.7186C20.8211 16.5923 20.7623 16.4617 20.7025 16.3259L16.7999 7.40826C16.7717 7.34389 16.7637 7.27253 16.7767 7.2035C16.7898 7.13447 16.8233 7.07099 16.873 7.02135L21.264 2.63043C22.0411 1.85326 22.2721 0.770478 21.768 0.266391C21.548 0.0478261 21.2506 0 21.0401 0C20.4983 0 19.887 0.286956 19.404 0.770956L15.0915 5.08343C15.0415 5.13361 14.9773 5.16739 14.9076 5.18029C14.8379 5.19319 14.766 5.1846 14.7013 5.15565L5.85344 1.24348C5.14417 0.929739 4.53152 0.659043 4.05996 0.659043C3.95193 0.654059 3.84408 0.672026 3.74351 0.71176C3.64293 0.751495 3.55192 0.812095 3.47648 0.889565L3.09865 1.26452L11.5591 8.06874C11.5958 8.09823 11.6262 8.13485 11.6484 8.17639C11.6706 8.21793 11.6841 8.26353 11.6882 8.31044C11.6923 8.35735 11.6869 8.40461 11.6723 8.44938C11.6576 8.49414 11.6341 8.53548 11.6031 8.57091L5.55548 15.4684C5.51455 15.5149 5.46196 15.5498 5.40313 15.5693C5.34429 15.5887 5.28132 15.5922 5.2207 15.5793L1.30996 14.7261L1.16648 14.6946C0.93213 14.642 0.729826 14.5989 0.559087 14.5989C0.472133 14.5962 0.385636 14.6125 0.305606 14.6466C0.225576 14.6807 0.153932 14.7318 0.0956522 14.7964L0 14.8921L3.63813 17.0959C3.7173 17.1436 3.77434 17.2207 3.79675 17.3103C3.81916 17.4 3.80512 17.4949 3.7577 17.5742L2.71796 19.3323L4.499 18.3174C4.55166 18.2882 4.61098 18.2732 4.67117 18.2739Z" fill="#3A4276"/>
</svg>
