<svg width="19" height="19" viewBox="0 0 19 19" fill="none" xmlns="http://www.w3.org/2000/svg">
<path fill-rule="evenodd" clip-rule="evenodd" d="M3 6C4.65685 6 6 4.65685 6 3C6 1.34315 4.65685 0 3 0C1.34315 0 0 1.34315 0 3C0 4.65685 1.34315 6 3 6ZM16.0001 6C17.657 6 19.0001 4.65685 19.0001 3C19.0001 1.34315 17.657 0 16.0001 0C14.3433 0 13.0001 1.34315 13.0001 3C13.0001 4.65685 14.3433 6 16.0001 6ZM6 16C6 17.6569 4.65685 19 3 19C1.34315 19 0 17.6569 0 16C0 14.3432 1.34315 13 3 13C4.65685 13 6 14.3432 6 16ZM16.0001 19C17.657 19 19.0001 17.6569 19.0001 16C19.0001 14.3432 17.657 13 16.0001 13C14.3433 13 13.0001 14.3432 13.0001 16C13.0001 17.6569 14.3433 19 16.0001 19Z" fill="#3A4276"/>
</svg>
