<svg width="16" height="24" viewBox="0 0 16 24" fill="none" xmlns="http://www.w3.org/2000/svg">
<path d="M12 24H3.56757C1.58108 24 0 22.3784 0 20.4324V3.56757C0 1.58108 1.62162 0 3.56757 0H12C13.9865 0 15.5676 1.62162 15.5676 3.56757V20.4324C15.5676 22.3784 13.9865 24 12 24ZM3.56757 1.7027C2.55405 1.7027 1.7027 2.55405 1.7027 3.56757V20.4324C1.7027 21.4459 2.55405 22.2973 3.56757 22.2973H12C13.0135 22.2973 13.8649 21.4459 13.8649 20.4324V3.56757C13.8649 2.55405 13.0135 1.7027 12 1.7027H3.56757Z" fill="#3A4276"/>
<path d="M7.78375 21.2432C6.24321 21.2432 4.98645 19.9865 4.98645 18.4459C4.98645 16.9054 6.24321 15.6486 7.78375 15.6486C9.32429 15.6486 10.581 16.9054 10.581 18.4459C10.581 19.9865 9.32429 21.2432 7.78375 21.2432ZM7.78375 17.3108C7.17564 17.3108 6.68915 17.7973 6.68915 18.4054C6.68915 19.0135 7.17564 19.5 7.78375 19.5C8.39186 19.5 8.87834 19.0135 8.87834 18.4054C8.91888 17.8378 8.39186 17.3108 7.78375 17.3108Z" fill="#3A4276"/>
</svg>
