<svg width="21" height="21" viewBox="0 0 21 21" fill="none" xmlns="http://www.w3.org/2000/svg">
<mask id="path-1-inside-1_1_594" fill="white">
<path fill-rule="evenodd" clip-rule="evenodd" d="M4.5 9C6.98528 9 9 6.98528 9 4.5C9 2.01472 6.98528 0 4.5 0C2.01472 0 0 2.01472 0 4.5C0 6.98528 2.01472 9 4.5 9ZM16.5 9C18.9853 9 21 6.98528 21 4.5C21 2.01472 18.9853 0 16.5 0C14.0147 0 12 2.01472 12 4.5C12 6.98528 14.0147 9 16.5 9ZM9 16.5C9 18.9853 6.98528 21 4.5 21C2.01472 21 0 18.9853 0 16.5C0 14.0147 2.01472 12 4.5 12C6.98528 12 9 14.0147 9 16.5ZM16.5 21C18.9853 21 21 18.9853 21 16.5C21 14.0147 18.9853 12 16.5 12C14.0147 12 12 14.0147 12 16.5C12 18.9853 14.0147 21 16.5 21Z"/>
</mask>
<path fill-rule="evenodd" clip-rule="evenodd" d="M4.5 9C6.98528 9 9 6.98528 9 4.5C9 2.01472 6.98528 0 4.5 0C2.01472 0 0 2.01472 0 4.5C0 6.98528 2.01472 9 4.5 9ZM16.5 9C18.9853 9 21 6.98528 21 4.5C21 2.01472 18.9853 0 16.5 0C14.0147 0 12 2.01472 12 4.5C12 6.98528 14.0147 9 16.5 9ZM9 16.5C9 18.9853 6.98528 21 4.5 21C2.01472 21 0 18.9853 0 16.5C0 14.0147 2.01472 12 4.5 12C6.98528 12 9 14.0147 9 16.5ZM16.5 21C18.9853 21 21 18.9853 21 16.5C21 14.0147 18.9853 12 16.5 12C14.0147 12 12 14.0147 12 16.5C12 18.9853 14.0147 21 16.5 21Z" fill="#F5F5F5"/>
<path d="M7.6 4.5C7.6 6.21208 6.21208 7.6 4.5 7.6V10.4C7.75848 10.4 10.4 7.75848 10.4 4.5H7.6ZM4.5 1.4C6.21208 1.4 7.6 2.78792 7.6 4.5H10.4C10.4 1.24152 7.75848 -1.4 4.5 -1.4V1.4ZM1.4 4.5C1.4 2.78792 2.78792 1.4 4.5 1.4V-1.4C1.24152 -1.4 -1.4 1.24152 -1.4 4.5H1.4ZM4.5 7.6C2.78792 7.6 1.4 6.21208 1.4 4.5H-1.4C-1.4 7.75848 1.24152 10.4 4.5 10.4V7.6ZM19.6 4.5C19.6 6.21208 18.2121 7.6 16.5 7.6V10.4C19.7585 10.4 22.4 7.75848 22.4 4.5H19.6ZM16.5 1.4C18.2121 1.4 19.6 2.78792 19.6 4.5H22.4C22.4 1.24152 19.7585 -1.4 16.5 -1.4V1.4ZM13.4 4.5C13.4 2.78792 14.7879 1.4 16.5 1.4V-1.4C13.2415 -1.4 10.6 1.24152 10.6 4.5H13.4ZM16.5 7.6C14.7879 7.6 13.4 6.21208 13.4 4.5H10.6C10.6 7.75848 13.2415 10.4 16.5 10.4V7.6ZM4.5 22.4C7.75848 22.4 10.4 19.7585 10.4 16.5H7.6C7.6 18.2121 6.21208 19.6 4.5 19.6V22.4ZM-1.4 16.5C-1.4 19.7585 1.24152 22.4 4.5 22.4V19.6C2.78792 19.6 1.4 18.2121 1.4 16.5H-1.4ZM4.5 10.6C1.24152 10.6 -1.4 13.2415 -1.4 16.5H1.4C1.4 14.7879 2.78792 13.4 4.5 13.4V10.6ZM10.4 16.5C10.4 13.2415 7.75848 10.6 4.5 10.6V13.4C6.21208 13.4 7.6 14.7879 7.6 16.5H10.4ZM19.6 16.5C19.6 18.2121 18.2121 19.6 16.5 19.6V22.4C19.7585 22.4 22.4 19.7585 22.4 16.5H19.6ZM16.5 13.4C18.2121 13.4 19.6 14.7879 19.6 16.5H22.4C22.4 13.2415 19.7585 10.6 16.5 10.6V13.4ZM13.4 16.5C13.4 14.7879 14.7879 13.4 16.5 13.4V10.6C13.2415 10.6 10.6 13.2415 10.6 16.5H13.4ZM16.5 19.6C14.7879 19.6 13.4 18.2121 13.4 16.5H10.6C10.6 19.7585 13.2415 22.4 16.5 22.4V19.6Z" fill="#3A4276" mask="url(#path-1-inside-1_1_594)"/>
</svg>
