<svg width="21" height="22" viewBox="0 0 21 22" fill="none" xmlns="http://www.w3.org/2000/svg">
<path d="M9.87903 8.66996L9.82717 8.2768L18.3529 5.98787L9.87903 8.66996ZM9.87903 8.66996H18.6991C19.203 8.66996 19.6862 8.87014 20.0426 9.22646C20.3989 9.58278 20.5991 10.0661 20.5991 10.57V18.97C20.5991 19.4739 20.3989 19.9572 20.0426 20.3135C19.6862 20.6698 19.203 20.87 18.6991 20.87H2.949C2.44509 20.87 1.96182 20.6698 1.60549 20.3135C1.24917 19.9572 1.049 19.4739 1.049 18.97V10.5715C1.05386 10.2666 1.13206 9.96734 1.27697 9.699L1.34576 9.57163L1.24626 9.46649C1.04535 9.2542 0.896142 8.99844 0.810215 8.71911L0.265137 6.69603C0.265129 6.696 0.265121 6.69597 0.265113 6.69594C0.265111 6.69594 0.265109 6.69593 0.265107 6.69592C0.13444 6.20969 0.202106 5.69147 0.453247 5.25509C0.704408 4.81868 1.11853 4.4998 1.60464 4.36852L16.8182 0.263268C16.8184 0.263227 16.8185 0.263187 16.8187 0.263146C17.0612 0.199007 17.3141 0.183533 17.5626 0.217619C17.8113 0.251727 18.0508 0.334781 18.2672 0.461982C18.4836 0.589184 18.6727 0.758012 18.8235 0.958711C18.9743 1.15941 19.0838 1.388 19.1457 1.63127L19.1457 1.63128M9.87903 8.66996L19.1457 1.63128M19.1457 1.63128L19.1464 1.63396M19.1457 1.63128L19.1464 1.63396M19.1464 1.63396L19.6924 3.66036C19.6924 3.66039 19.6924 3.66042 19.6924 3.66045C19.6924 3.66045 19.6924 3.66046 19.6924 3.66047C19.8231 4.1467 19.7554 4.66492 19.5043 5.1013C19.2532 5.53763 18.8392 5.85646 18.3532 5.98779L19.1464 1.63396ZM17.5062 2.1179L17.4543 1.92559L17.2618 1.97661L2.04727 6.00862L1.85339 6.06L1.90532 6.25373L2.45132 8.29074L2.50299 8.48349L2.69586 8.43225L17.9104 4.38974L18.1044 4.3382L18.0522 4.14441L17.5062 2.1179ZM2.749 18.97V19.17H2.949H18.6991H18.8991V18.97V10.57V10.37H18.6991H2.949H2.749V10.57V18.97Z" fill="#3A4276" stroke="#F1F3F6" stroke-width="0.4"/>
</svg>
