<svg width="24" height="24" viewBox="0 0 24 24" fill="none" xmlns="http://www.w3.org/2000/svg">
<path d="M0.4 6.4H2.8C3.0208 6.4 3.2 6.2212 3.2 6V3.2H6C6.2208 3.2 6.4 3.0212 6.4 2.8V0.4C6.4 0.1788 6.2208 0 6 0H0.4C0.1792 0 0 0.1788 0 0.4V6C0 6.2212 0.1792 6.4 0.4 6.4Z" fill="#3A4276"/>
<path d="M6 20.8H3.2V18C3.2 17.7788 3.0208 17.6 2.8 17.6H0.4C0.1792 17.6 0 17.7788 0 18V23.6C0 23.8212 0.1792 24 0.4 24H6C6.2208 24 6.4 23.8212 6.4 23.6V21.2C6.4 20.9788 6.2208 20.8 6 20.8Z" fill="#3A4276"/>
<path d="M23.6 0H18C17.7792 0 17.6 0.1788 17.6 0.4V2.8C17.6 3.0212 17.7792 3.2 18 3.2H20.8V6C20.8 6.2212 20.9792 6.4 21.2 6.4H23.6C23.8208 6.4 24 6.2212 24 6V0.4C24 0.1788 23.8208 0 23.6 0Z" fill="#3A4276"/>
<path d="M23.6 17.6H21.2C20.9792 17.6 20.8 17.7788 20.8 18V20.8H18C17.7792 20.8 17.6 20.9788 17.6 21.2V23.6C17.6 23.8212 17.7792 24 18 24H23.6C23.8208 24 24 23.8212 24 23.6V18C24 17.7788 23.8208 17.6 23.6 17.6Z" fill="#3A4276"/>
<path d="M23.6 11.6H18.8V5.59995C18.8 5.37875 18.6208 5.19995 18.4 5.19995H5.6C5.3792 5.19995 5.2 5.37875 5.2 5.59995V11.6H0.4C0.1792 11.6 0 11.7788 0 12C0 12.2212 0.1792 12.4 0.4 12.4H5.2V18.4C5.2 18.6212 5.3792 18.8 5.6 18.8H18.4C18.6208 18.8 18.8 18.6212 18.8 18.4V12.4H23.6C23.8208 12.4 24 12.2212 24 12C24 11.7788 23.8208 11.6 23.6 11.6ZM18 18H6V12.4H18V18Z" fill="#3A4276"/>
</svg>
