<svg width="23" height="24" viewBox="0 0 23 24" fill="none" xmlns="http://www.w3.org/2000/svg">
<path d="M14.7699 8.294V6.60022H7.45837V8.294H8.81904C9.3834 8.29613 9.93282 8.4755 10.3897 8.80678C10.8466 9.13806 11.1879 9.60449 11.3654 10.1402H7.57694V11.834H11.3654C11.1889 12.3708 10.848 12.8385 10.391 13.1708C9.93404 13.5032 9.38409 13.6833 8.81904 13.6859H7.45837V15.3797H8.45206L13.3697 20.5231L14.5948 19.3318L10.4846 15.0522C11.1558 14.7755 11.748 14.3367 12.2081 13.775C12.6682 13.2134 12.982 12.5465 13.1212 11.834H14.7699V10.1402H13.1212C12.9971 9.46704 12.7124 8.83373 12.2913 8.294H14.7699Z" fill="#3A4276"/>
<path d="M20.1616 9.77871C20.8463 11.8021 20.8287 13.9973 20.1118 16.0095C19.3949 18.0217 18.0206 19.7335 16.2108 20.8682C14.401 22.0029 12.2615 22.4943 10.1379 22.263C8.01438 22.0318 6.03083 21.0913 4.50775 19.5936C2.98466 18.0958 2.01102 16.1284 1.74411 14.009C1.4772 11.8896 1.93263 9.74216 3.03681 7.91357C4.14098 6.08498 5.82942 4.68207 7.82931 3.93149C9.82921 3.18091 12.0238 3.12651 14.0584 3.77708L14.5496 2.16234C12.3021 1.45161 9.88741 1.46951 7.65069 2.21348C5.41397 2.95746 3.46966 4.38943 2.09562 6.30475C0.721589 8.22007 -0.0118427 10.5207 0.000144634 12.8779C0.012132 15.2351 0.768924 17.5281 2.16237 19.4294C3.55581 21.3306 5.51458 22.7428 7.75876 23.4639C10.0029 24.1851 12.4176 24.1785 14.6578 23.4449C16.898 22.7114 18.8489 21.2885 20.2319 19.3795C21.6148 17.4706 22.3589 15.1734 22.3579 12.8162C22.3685 11.6001 22.1777 10.3906 21.7933 9.2367L20.1616 9.77871Z" fill="#3A4276"/>
<path d="M18.4173 3.23512V7.44699H20.111V3.15043L21.4265 4.46594L22.6235 3.269L19.3545 0L19.3037 0.0451674L19.2585 0L15.9895 3.269L17.1864 4.46594L18.4173 3.23512Z" fill="#3A4276"/>
</svg>
